<?xml version="1.0" encoding="utf-8"?>
<!-- Svg Vector Icons : http://www.onlinewebfonts.com/icon -->
<!DOCTYPE svg PUBLIC "-//W3C//DTD SVG 1.1//EN" "http://www.w3.org/Graphics/SVG/1.1/DTD/svg11.dtd">
<svg version="1.1" xmlns="http://www.w3.org/2000/svg" xmlns:xlink="http://www.w3.org/1999/xlink" x="0px" y="0px" viewBox="0 0 1000 1000" enable-background="new 0 0 1000 1000" xml:space="preserve">
<metadata> Svg Vector Icons : http://www.onlinewebfonts.com/icon </metadata>
<g><path d="M965.4,419.1l-1.3-1.4l-1.5-1.3L558.8,55.8c-15.9-15.5-36.7-24-58.8-24c-22.1,0-42.9,8.5-58.8,24L37.4,416.4l-1.5,1.3l-1.4,1.4c-24.3,25.1-31.3,62.2-17.8,94.7c6.3,15.1,16.4,27.9,29.4,37.3c14.3,10.2,33.3,25.2,51,25.2l0,0v304.9c0,47.4,40.2,87.1,87.1,87.1h152.5c46.9,0,87.1-39.7,87.1-87.1V706.9h152.4v174.2c0,47.4,18.4,87.1,65.3,87.1h174.2c46.9,0,87.1-39.7,87.1-87.1V576.2l43.6-21.8c17.7,0-7,6.8,7.3-3.4c13-9.3,23.2-22.2,29.4-37.3C996.7,481.3,989.7,444.1,965.4,419.1L965.4,419.1z M904.9,511.7h-67.1v370.4c0,17.2-26.7,20.7-43.7,20.7H685.2c-17,0-43.6-4.6-43.6-21.8l0-239.6H358.5v239.6c0,17.2-26.6,21.8-43.6,21.8H206.1c-17,0-43.6-4.6-43.6-21.8V510.9H97.2c-27.4,0-30.8-46.7,0-65.3l370.2-326.7c6-6.2,26.3-21.8,34.2-21.8c7.9,0,25.1,15.6,31.1,21.8L903,445.6C931.3,464.2,932.3,511.7,904.9,511.7L904.9,511.7z"/></g>
</svg>